<svg width="864" height="954" viewBox="0 0 864 954" fill="none" xmlns="http://www.w3.org/2000/svg">
<path opacity="0.44" d="M284.603 393.356C22.1936 605.242 -200.854 1228.41 298.249 1361.35C797.353 1494.28 1242.92 861.326 1099.12 517.856C955.321 174.385 459.893 252.324 284.603 393.356Z" fill="#70C4E6"/>
<path d="M146.683 185.564C146.683 185.564 118.479 196.721 114.332 223.822C110.184 250.923 174.274 330.309 174.274 330.309L371.918 223.805L309.429 114.141L146.683 185.564Z" fill="#BDE4F3"/>
<path d="M190.384 211.18C190.384 211.18 169.587 232.532 163.208 256.157C156.829 279.782 156.008 321.972 157.07 337.775C188.094 366.485 310.724 342.428 310.724 342.428L428.899 203.415C428.899 203.415 408.866 165.381 398.696 154.954C388.525 144.527 355.56 131.561 317.526 146.866C295.203 178.546 190.384 211.18 190.384 211.18Z" fill="#DFF1F8"/>
<g style="mix-blend-mode:multiply">
<path d="M181.102 222.221C181.102 222.221 226.983 236.945 278.63 216.995C330.277 197.044 339.634 140.852 339.634 140.852L317.502 146.874L190.385 211.18L181.102 222.221Z" fill="#DFF1F8"/>
</g>
<path d="M367.878 394.589C367.878 394.589 425.888 394.962 442.188 399.126C458.488 403.29 501.632 500.935 519.483 510.283C537.335 519.632 552.499 504.103 572.167 492.573C591.835 481.042 609.861 467.09 610.425 461.266C610.989 455.443 602.636 432.175 595.41 427.48C588.185 422.784 567.206 422.453 556.016 429.62C539.575 384.825 516.199 319.5 494.763 310.507C473.328 301.515 408.368 297.235 408.368 297.235L367.878 394.589Z" fill="#DFF1F8"/>
<g style="mix-blend-mode:multiply" opacity="0.51">
<path d="M428.896 351.835C428.896 351.835 476.129 357.003 489.178 374.58C502.226 392.158 528.083 499.715 557.025 502.262C557.49 537.102 497.548 549.686 497.548 549.686L353.865 390.034L428.896 351.835Z" fill="#DFF1F8"/>
</g>
<path d="M212.026 385.78C212.026 385.78 247.696 460.595 280.048 481.001C312.4 501.408 371.014 499.757 387.182 513.121C403.349 526.485 399.932 590.682 416.091 607.687C432.25 624.693 454.988 635.112 476.24 633.195C497.493 631.279 514.498 621.084 514.714 611.52C514.93 601.955 514.075 593.66 504.088 588.558C494.1 583.457 480.031 579.21 479.426 573.262C478.82 567.314 467.522 476.763 462.835 452.15C458.148 427.538 421.748 393.303 374.838 376.057C330.417 338.861 262.188 354.797 262.188 354.797L212.026 385.78Z" fill="#DFF1F8"/>
<g style="mix-blend-mode:multiply">
<path d="M222.404 405.796C222.404 405.796 263.341 407.887 300.106 391.736C293.08 354.324 271.404 343.275 271.404 343.275L212.026 385.78L222.404 405.796Z" fill="#DFF1F8"/>
</g>
<path d="M279.05 15.095C246.988 -2.06803 179.796 -7.85815 138.32 43.5811C96.8432 95.0203 117.515 148.367 134.944 173.204C153.193 199.267 215.922 239.101 282.874 201.69C349.825 164.278 356.843 56.754 279.05 15.095Z" fill="#DFF1F8"/>
<path d="M273.536 46.551C302.014 53.3532 320.513 93.3117 310.948 131.57C301.384 169.828 268.435 195.551 231.454 195.759C194.474 195.966 157.701 170.715 157.9 123.498C158.099 78.1229 211.695 31.7854 273.536 46.551Z" fill="#1C3177"/>
<g style="mix-blend-mode:multiply">
<path d="M191.486 345.398C228.591 328.177 200.835 288.857 237.824 279.915C286.592 286.849 300.08 284.361 300.08 284.361C300.08 284.361 206.783 366.302 191.486 345.398Z" fill="#DFF1F8"/>
</g>
<path d="M222.4 240.23L284.151 399.127L371.509 397.045L451.426 346.46L475.233 274.191L417.423 100.753L389.36 181.947L316.668 239.757L222.4 240.23Z" fill="#FEABB7"/>
<path d="M191.486 345.398C211.959 343.739 222.386 330.408 228.591 324.494C231.751 321.474 231.121 318.828 229.528 310.118C227.935 301.408 233.46 292.474 241.009 288.65C245.156 299.807 250.25 301.922 254.182 301.4C258.114 300.877 262.153 277.385 275.011 277.592C287.869 277.8 298.18 294.813 299.897 303.308C301.614 311.802 293.311 336.033 282.892 353.038C272.473 370.043 257.774 391.097 224.684 397.683C191.594 404.27 172.78 387.372 161.938 366.012C158.28 358.803 156.961 348.841 157.077 337.741C157.077 337.741 164.485 347.522 191.486 345.398Z" fill="#DFF1F8"/>
<path d="M437.333 160.487C437.333 160.487 441.274 173.304 438.619 178.297C435.965 183.291 432.348 187.422 429.693 193.818C427.039 200.214 430.971 224.32 442.659 228.459C454.347 232.598 464.019 221.765 467.105 215.493C470.191 209.222 468.482 192.756 463.912 181.275C459.341 169.795 450.747 159.591 437.333 160.487Z" fill="#DFF1F8"/>
<path d="M450.775 1.25069L453.396 6.55968C453.553 6.88138 453.786 7.15987 454.076 7.37093C454.365 7.582 454.701 7.71927 455.055 7.7708L460.92 8.60033C461.33 8.65905 461.715 8.83154 462.032 9.09823C462.349 9.36492 462.585 9.71512 462.713 10.1091C462.841 10.503 462.855 10.9249 462.756 11.3269C462.656 11.7288 462.445 12.0947 462.148 12.383L457.909 16.5306C457.651 16.7804 457.458 17.0893 457.347 17.4304C457.236 17.7715 457.209 18.1347 457.27 18.4883L458.266 24.2951C458.336 24.7023 458.291 25.1211 458.136 25.5041C457.981 25.8871 457.721 26.2191 457.387 26.4624C457.053 26.7058 456.658 26.8509 456.246 26.8813C455.834 26.9116 455.421 26.8261 455.055 26.6343L449.804 23.8803C449.487 23.7125 449.134 23.6248 448.776 23.6248C448.417 23.6248 448.064 23.7125 447.747 23.8803L442.496 26.6343C442.13 26.8284 441.716 26.9158 441.303 26.8865C440.889 26.8573 440.492 26.7126 440.157 26.4688C439.822 26.2251 439.561 25.8922 439.406 25.5079C439.251 25.1236 439.206 24.7034 439.278 24.2951L440.281 18.4883C440.342 18.1347 440.316 17.7715 440.204 17.4304C440.093 17.0893 439.9 16.7804 439.643 16.5306L435.404 12.383C435.106 12.0947 434.896 11.7288 434.796 11.3269C434.696 10.9249 434.711 10.503 434.839 10.1091C434.967 9.71512 435.202 9.36492 435.519 9.09823C435.836 8.83154 436.221 8.65905 436.631 8.60033L442.496 7.7708C442.85 7.71927 443.187 7.582 443.476 7.37093C443.765 7.15987 443.998 6.88138 444.155 6.55968L446.777 1.25069C446.959 0.875712 447.243 0.559582 447.597 0.338427C447.95 0.117273 448.359 0 448.776 0C449.193 0 449.601 0.117273 449.955 0.338427C450.308 0.559582 450.592 0.875712 450.775 1.25069Z" fill="#F0D655"/>
<path d="M170.126 563.083L172.325 567.538C172.456 567.808 172.652 568.042 172.895 568.219C173.138 568.395 173.421 568.509 173.718 568.55L178.637 569.263C178.98 569.314 179.302 569.459 179.567 569.682C179.832 569.906 180.029 570.199 180.136 570.528C180.243 570.858 180.256 571.211 180.173 571.547C180.09 571.884 179.914 572.19 179.666 572.432L176.107 575.9C175.889 576.111 175.726 576.373 175.633 576.663C175.541 576.952 175.521 577.26 175.576 577.559L176.406 582.453C176.463 582.795 176.424 583.145 176.293 583.466C176.162 583.786 175.944 584.064 175.665 584.268C175.385 584.472 175.054 584.594 174.709 584.621C174.364 584.647 174.018 584.578 173.71 584.419L169.314 582.105C169.047 581.966 168.751 581.893 168.451 581.893C168.15 581.893 167.854 581.966 167.588 582.105L163.208 584.402C162.901 584.564 162.554 584.637 162.207 584.612C161.861 584.586 161.528 584.464 161.247 584.26C160.967 584.055 160.749 583.776 160.619 583.453C160.489 583.131 160.452 582.779 160.512 582.436L161.342 577.542C161.393 577.243 161.371 576.935 161.277 576.646C161.183 576.357 161.02 576.095 160.803 575.883L157.252 572.416C157.004 572.174 156.829 571.867 156.746 571.531C156.662 571.194 156.675 570.841 156.782 570.512C156.889 570.182 157.086 569.889 157.351 569.666C157.616 569.442 157.938 569.297 158.281 569.247L163.192 568.533C163.49 568.492 163.774 568.378 164.018 568.201C164.262 568.025 164.46 567.792 164.594 567.521L166.792 563.067C166.947 562.756 167.185 562.495 167.481 562.313C167.776 562.131 168.117 562.035 168.464 562.037C168.811 562.039 169.151 562.138 169.445 562.323C169.739 562.508 169.975 562.771 170.126 563.083Z" fill="#F0D655"/>
<g style="mix-blend-mode:soft-light" opacity="0.48">
<path d="M248.677 94.2477C269.091 89.748 284.351 80.2465 282.759 73.0255C281.167 65.8044 263.328 63.5984 242.913 68.0981C222.498 72.5978 207.239 82.0993 208.831 89.3203C210.422 96.5413 228.262 98.7474 248.677 94.2477Z" fill="white"/>
</g>
<g style="mix-blend-mode:multiply">
<path d="M295.168 327.132C295.168 327.132 271.684 306.145 267.429 306.145C263.173 306.145 251.842 322.735 254.397 327.132C256.952 331.528 270.075 345.929 284.484 350.359C289.154 341.45 295.168 327.132 295.168 327.132Z" fill="#DFF1F8"/>
</g>
<g style="mix-blend-mode:multiply" opacity="0.5">
<path d="M316.668 239.757L371.508 397.045L451.425 346.46L389.36 181.947L316.668 239.757Z" fill="#FF93A2"/>
</g>
<g style="mix-blend-mode:multiply">
<path d="M467.54 482.196C459.321 489.006 450.083 494.483 440.166 498.43C430.866 502.013 427.723 509.346 430.535 522.801C433.347 536.256 434.923 557.235 440.73 562.76C446.536 568.284 466.511 565.348 476.864 552.507C473.621 527.206 467.54 482.196 467.54 482.196Z" fill="#DFF1F8"/>
</g>
<g style="mix-blend-mode:multiply">
<path d="M521.664 345.016C521.664 345.016 510.051 350.077 511.154 358.148C512.257 366.219 524.12 405.232 528.798 408.749C533.477 412.266 547.322 406.028 547.322 406.028C533.103 365.746 521.664 345.016 521.664 345.016Z" fill="#DFF1F8"/>
</g>
<path d="M31.5779 438.372C22.3452 419.226 52.4323 398.737 78.0316 400.213C103.631 401.69 114.39 425.323 123.457 434.141C142.395 452.54 141.798 470.541 128.683 478.28C115.568 486.02 43.7969 463.697 31.5779 438.372Z" fill="#70C4E6"/>
<path d="M548.01 141.773C540.545 135.236 548.226 104.51 565.862 97.3183C583.498 90.1263 605.397 97.9902 610.076 110.317C614.754 122.644 563.315 155.161 548.01 141.773Z" fill="#70C4E6"/>
<path d="M634.433 158.214C630.608 163.664 628.062 179.185 636.133 181.947C644.204 184.709 650.31 168.741 647.473 160.429C644.636 152.117 636.987 154.573 634.433 158.214Z" fill="#70C4E6"/>
<path opacity="0.44" d="M640.236 32.2666C634.214 35.1036 624.284 47.2977 629.925 53.71C635.566 60.1223 648.78 49.2886 650.448 40.6698C652.115 32.0509 644.26 30.3753 640.236 32.2666Z" fill="#70C4E6"/>
<path opacity="0.44" d="M73.9343 518.928C68.7249 514.78 53.4034 511.254 50.1351 519.143C46.8667 527.032 62.4287 534.075 70.8733 531.802C79.318 529.529 77.4018 521.698 73.9343 518.928Z" fill="#70C4E6"/>
<g style="mix-blend-mode:multiply" opacity="0.64">
<path d="M118.918 428.89C109.652 430.632 111.145 438.919 114.115 446.426C117.085 453.934 127.537 456.074 134.912 449.214C130.125 437.824 118.918 428.89 118.918 428.89Z" fill="#70C4E6"/>
</g>
<g style="mix-blend-mode:multiply" opacity="0.64">
<path d="M65.6554 416.389C59.0192 417.128 53.6107 426.734 58.2892 434.523C62.9678 442.312 71.8852 447.986 76.9868 445.863C82.0884 443.739 82.9429 432.258 79.2598 424.892C75.5766 417.526 72.0345 415.676 65.6554 416.389Z" fill="#70C4E6"/>
</g>
<g style="mix-blend-mode:multiply" opacity="0.64">
<path d="M589.37 103.938C585.729 105.099 582.037 109.039 582.361 113.295C582.684 117.55 586.4 121.267 590.432 120.761C594.464 120.255 597.898 113.743 597.068 109.064C596.239 104.386 592.149 103.058 589.37 103.938Z" fill="#70C4E6"/>
</g>
<g style="mix-blend-mode:multiply" opacity="0.64">
<path d="M550.805 112.233C550.805 112.233 555.782 117.21 554.953 122.859C554.123 128.509 545.546 127.986 545.546 127.986C545.546 127.986 546.823 118.355 550.805 112.233Z" fill="#70C4E6"/>
</g>
<g style="mix-blend-mode:multiply" opacity="0.5">
<path d="M605.154 800.81C614.409 779.695 595.087 746.976 563.772 747.549C532.456 748.122 500.133 765.014 497.661 783.927C495.189 802.84 527.966 825.17 556.301 826.845C584.636 828.52 596.27 821.114 605.154 800.81Z" fill="#70C4E6"/>
</g>
<g style="mix-blend-mode:multiply" opacity="0.5">
<path d="M31.8633 866.947C3.31909 875.576 3.98291 918.06 0 961.872C36.0379 1000.05 108.135 1016.87 147.432 1006.47C186.728 996.056 221.052 947.932 185.207 918.06C121.479 875.576 54.7382 860.031 31.8633 866.947Z" fill="#70C4E6"/>
</g>
<g style="mix-blend-mode:multiply" opacity="0.5">
<path d="M789.943 440.111C793.562 491.229 839.339 553.54 877.52 517.502C915.701 481.464 943.514 412.775 933.104 373.478C922.695 334.182 882.465 310.841 846.357 339.211C810.25 367.581 786.446 390.975 789.943 440.111Z" fill="#70C4E6"/>
</g>
</svg>
