<?xml version="1.0" encoding="UTF-8" standalone="no"?>
<!-- Created with Inkscape (http://www.inkscape.org/) -->

<svg
   version="1.1"
   id="svg2"
   xml:space="preserve"
   width="1058.4226"
   height="247.20932"
   viewBox="0 0 1058.4226 247.20932"
   sodipodi:docname="736edd2554871c7d75c0a7cb58e7e16f.eps"
   xmlns:inkscape="http://www.inkscape.org/namespaces/inkscape"
   xmlns:sodipodi="http://sodipodi.sourceforge.net/DTD/sodipodi-0.dtd"
   xmlns="http://www.w3.org/2000/svg"
   xmlns:svg="http://www.w3.org/2000/svg"><defs
     id="defs6" /><sodipodi:namedview
     id="namedview4"
     pagecolor="#ffffff"
     bordercolor="#666666"
     borderopacity="1.0"
     inkscape:pageshadow="2"
     inkscape:pageopacity="0.0"
     inkscape:pagecheckerboard="0" /><g
     id="g8"
     inkscape:groupmode="layer"
     inkscape:label="ink_ext_XXXXXX"
     transform="matrix(1.3333333,0,0,-1.3333333,0,247.20933)"><g
       id="g10"
       transform="scale(0.1)"><path
         d="M 1515.84,469.309 C 1379.03,293.789 1166.27,180.211 926.934,180.211 c -411.821,0 -746.895,335.039 -746.895,746.879 0,411.82 335.074,746.86 746.895,746.86 251.086,0 473.066,-124.9 608.556,-315.46 h 211.27 C 1591.18,1652.85 1282.29,1854.07 926.934,1854.07 415.813,1854.07 0,1438.26 0,927.09 0,415.879 415.813,0 926.934,0 1271.58,0 1572.19,189.449 1731.97,469.309 h -216.13"
         style="fill:#c81843;fill-opacity:1;fill-rule:nonzero;stroke:none"
         id="path12" /><path
         d="M 1734.64,1096.45 V 745.73 h 355.48 c 88.89,0 128.62,34.95 128.62,112.508 v 120.977 c 0,81.335 -50.08,117.235 -155.04,117.235 z m 694.02,-61.41 V 798.66 c 0,-152.199 -72.83,-220.308 -239.22,-220.308 H 1524.81 V 1265.7 h 603.14 c 204.18,0 300.71,-66.21 300.71,-230.66"
         style="fill:#231f20;fill-opacity:1;fill-rule:nonzero;stroke:none"
         id="path14" /><path
         d="m 3234.56,1265.7 h 223.1 L 3090.83,578.352 H 2836.51 L 2473.4,1265.7 h 228.91 l 258.11,-493.501 274.14,493.501"
         style="fill:#231f20;fill-opacity:1;fill-rule:nonzero;stroke:none"
         id="path16" /><path
         d="M 5090.25,578.352 4678.04,1078.52 V 578.352 H 4468.2 V 1265.7 h 311.07 l 409.42,-503.95 v 503.95 h 208.85 V 578.352 h -307.29"
         style="fill:#231f20;fill-opacity:1;fill-rule:nonzero;stroke:none"
         id="path18" /><path
         d="m 6190.82,1024.62 c 0,54.8 -34.97,77.54 -110.69,77.54 h -168.16 c -136.23,0 -169.34,-17.97 -169.34,-135.172 v -95.562 c 0,-107.735 46.37,-129.528 169.34,-129.528 h 121.86 c 116.32,0 162.63,12.313 162.63,94.563 0,2.828 0,4.758 0,7.559 h 212.71 c 1,-18.008 1.85,-34.008 1.85,-50.02 0,-85.16 -19.75,-141.93 -68.98,-177.789 -52.07,-38.723 -134.28,-46.301 -254.28,-46.301 h -234.53 c -108.67,0 -185.31,4.699 -244.84,50.981 -57.74,45.41 -79.44,107.769 -79.44,201.39 v 187.249 c 0,206.07 89.8,264.67 324.28,264.67 h 234.53 c 120,0 201.4,-5.67 251.47,-44.42 44.42,-34.02 63.31,-90.79 63.31,-173.02 0,-12.27 0,-25.55 -0.93,-38.7 h -210.79 c 0,1.83 0,4.66 0,6.56"
         style="fill:#231f20;fill-opacity:1;fill-rule:nonzero;stroke:none"
         id="path20" /><path
         d="M 6534.87,578.352 V 1265.7 h 209.9 V 578.352 h -209.9"
         style="fill:#231f20;fill-opacity:1;fill-rule:nonzero;stroke:none"
         id="path22" /><path
         d="m 4367.39,575.051 -375.24,690.239 h -41.41 l 0.19,0.4 H 3722.07 L 3346.92,575.371 h 228.85 L 3857,1092.87 4138.56,575.051 h 228.83"
         style="fill:#231f20;fill-opacity:1;fill-rule:nonzero;stroke:none"
         id="path24" /><path
         d="m 7879.1,575.051 -375.24,690.239 h -41.57 l 0.29,0.4 H 7233.75 L 6858.52,575.371 h 228.93 l 281.26,517.499 281.59,-517.819 h 228.8"
         style="fill:#231f20;fill-opacity:1;fill-rule:nonzero;stroke:none"
         id="path26" /><path
         d="M 4168.5,596.922 H 3723.89"
         style="fill:#ffffff;fill-opacity:1;fill-rule:nonzero;stroke:none"
         id="path28" /><path
         d="m 4168.5,574.41 h -444.61 v 45.02 h 444.61 v -45.02"
         style="fill:#231f20;fill-opacity:1;fill-rule:nonzero;stroke:none"
         id="path30" /><path
         d="m 1247.23,468.172 8.39,785.668 -36.22,20.2 0.36,0.19 -199.95,111.47 -663.74,-420.411 199.965,-111.277 497.585,315.028 -6.26,-589.38 199.87,-111.488"
         style="fill:#c81843;fill-opacity:1;fill-rule:nonzero;stroke:none"
         id="path32" /><path
         d="M 1084.23,584.148 695.883,800.551"
         style="fill:#c81843;fill-opacity:1;fill-rule:nonzero;stroke:none"
         id="path34" /><path
         d="M 706.832,820.262 684.902,780.91 1073.23,564.469 1095.16,603.82 706.832,820.262"
         style="fill:#c81843;fill-opacity:1;fill-rule:nonzero;stroke:none"
         id="path36" /><path
         d="M 7719.57,596.922 H 7275"
         style="fill:#ffffff;fill-opacity:1;fill-rule:nonzero;stroke:none"
         id="path38" /><path
         d="M 7719.57,574.41 H 7275 v 45.02 h 444.57 v -45.02"
         style="fill:#231f20;fill-opacity:1;fill-rule:nonzero;stroke:none"
         id="path40" /><path
         d="m 7810.74,1170.32 h 21.53 c 10.33,0 17.31,1.52 21.06,4.58 3.77,3.04 5.63,7.08 5.63,12.04 0,3.2 -0.92,6.1 -2.77,8.65 -1.76,2.52 -4.3,4.4 -7.46,5.7 -3.23,1.25 -9.15,1.86 -17.8,1.86 h -20.19 z m -17.43,-60.94 v 108.23 h 37.43 c 12.74,0 22.03,-0.98 27.73,-2.99 5.73,-1.94 10.29,-5.44 13.68,-10.41 3.42,-4.95 5.15,-10.22 5.15,-15.83 0,-7.87 -2.86,-14.72 -8.63,-20.57 -5.71,-5.84 -13.23,-9.12 -22.75,-9.85 3.88,-1.57 7.01,-3.51 9.29,-5.75 4.37,-4.28 9.71,-11.45 16.04,-21.55 l 13.26,-21.28 h -21.55 l -9.7,17.14 c -7.63,13.32 -13.68,21.73 -18.09,25.19 -3.22,2.56 -7.92,3.81 -14.04,3.69 h -10.39 v -46.02 z m 44.11,139.81 c -14.1,0 -27.92,-3.65 -41.31,-10.88 -13.46,-7.25 -23.96,-17.61 -31.52,-31.07 -7.55,-13.47 -11.33,-27.51 -11.33,-42.08 0,-14.52 3.75,-28.37 11.11,-41.67 7.46,-13.3 17.89,-23.68 31.28,-31.11 13.36,-7.41 27.33,-11.14 41.77,-11.14 14.57,0 28.54,3.73 41.9,11.14 13.4,7.43 23.82,17.81 31.15,31.11 7.4,13.3 11.12,27.15 11.12,41.67 0,14.57 -3.75,28.61 -11.31,42.08 -7.53,13.46 -18.02,23.82 -31.48,31.07 -13.45,7.23 -27.24,10.88 -41.38,10.88 z m 0,16.62 c 17.01,0 33.53,-4.34 49.63,-13.03 16.13,-8.66 28.7,-21.07 37.69,-37.18 8.94,-16.11 13.43,-32.94 13.43,-50.44 0,-17.34 -4.34,-34 -13.26,-49.98 -8.9,-16.02 -21.28,-28.41 -37.28,-37.27 -15.96,-8.86 -32.68,-13.25 -50.21,-13.25 -17.43,0 -34.14,4.39 -50.08,13.25 -16,8.86 -28.45,21.25 -37.34,37.27 -8.93,15.98 -13.39,32.64 -13.39,49.98 0,17.5 4.53,34.33 13.55,50.44 9.02,16.11 21.6,28.52 37.76,37.18 16.1,8.69 32.62,13.03 49.5,13.03"
         style="fill:#231f20;fill-opacity:1;fill-rule:nonzero;stroke:none"
         id="path42" /><path
         d="M 5621.92,221.391 H 5531 v 23.5 h 30.16 V 428.129 H 5531 v 23.5 h 90.92 v -23.5 h -30.15 V 244.891 h 30.15 v -23.5"
         style="fill:#231f20;fill-opacity:1;fill-rule:nonzero;stroke:none"
         id="path44" /><path
         d="m 5894.55,424.422 h -82.27 V 221.391 h -30.61 v 203.031 h -82.27 v 27.207 h 195.15 v -27.207"
         style="fill:#231f20;fill-opacity:1;fill-rule:nonzero;stroke:none"
         id="path46" /><path
         d="m 6320.83,287.121 c 0,-8.992 -2.09,-17.84 -6.26,-26.601 -4.17,-8.77 -10.03,-16.192 -17.56,-22.27 -8.25,-6.602 -17.85,-11.762 -28.84,-15.469 -10.97,-3.711 -24.19,-5.57 -39.66,-5.57 -16.59,0 -31.51,1.551 -44.76,4.641 -13.25,3.097 -26.72,7.679 -40.43,13.757 v 38.36 h 2.15 c 11.65,-9.699 25.11,-17.18 40.36,-22.43 15.27,-5.25 29.59,-7.879 43,-7.879 18.96,0 33.72,3.551 44.29,10.66 10.57,7.121 15.86,16.61 15.86,28.461 0,10.207 -2.5,17.739 -7.5,22.578 -5.01,4.84 -12.6,8.602 -22.81,11.289 -7.74,2.051 -16.11,3.762 -25.13,5.102 -9.02,1.328 -18.57,3.031 -28.69,5.09 -20.4,4.34 -35.54,11.73 -45.37,22.199 -9.86,10.461 -14.78,24.09 -14.78,40.902 0,19.27 8.15,35.071 24.44,47.379 16.28,12.328 36.95,18.489 62,18.489 16.19,0 31.03,-1.539 44.53,-4.637 13.5,-3.094 25.47,-6.902 35.89,-11.453 v -36.168 h -2.18 c -8.75,7.41 -20.27,13.578 -34.55,18.469 -14.28,4.902 -28.89,7.351 -43.84,7.351 -16.4,0 -29.56,-3.41 -39.51,-10.211 -9.94,-6.801 -14.92,-15.57 -14.92,-26.281 0,-9.59 2.47,-17.109 7.42,-22.59 4.95,-5.461 13.66,-9.629 26.13,-12.519 6.6,-1.43 15.99,-3.192 28.15,-5.25 12.16,-2.071 22.47,-4.18 30.92,-6.34 17.11,-4.539 30,-11.399 38.66,-20.571 8.66,-9.179 12.99,-22.007 12.99,-38.488"
         style="fill:#231f20;fill-opacity:1;fill-rule:nonzero;stroke:none"
         id="path48" /><path
         d="m 6653.7,451.629 -81.03,-129.27 V 221.391 h -30.61 v 97.73 l -81.34,132.508 h 33.86 l 62.94,-102.981 63.55,102.981 h 32.63"
         style="fill:#231f20;fill-opacity:1;fill-rule:nonzero;stroke:none"
         id="path50" /><path
         d="m 6963.84,287.121 c 0,-8.992 -2.09,-17.84 -6.27,-26.601 -4.17,-8.77 -10.02,-16.192 -17.55,-22.27 -8.25,-6.602 -17.86,-11.762 -28.83,-15.469 -10.98,-3.711 -24.2,-5.57 -39.67,-5.57 -16.58,0 -31.52,1.551 -44.76,4.641 -13.25,3.097 -26.73,7.679 -40.44,13.757 v 38.36 h 2.17 c 11.65,-9.699 25.1,-17.18 40.35,-22.43 15.27,-5.25 29.59,-7.879 42.99,-7.879 18.98,0 33.74,3.551 44.31,10.66 10.56,7.121 15.85,16.61 15.85,28.461 0,10.207 -2.51,17.739 -7.5,22.578 -5,4.84 -12.61,8.602 -22.81,11.289 -7.74,2.051 -16.11,3.762 -25.13,5.102 -9.02,1.328 -18.59,3.031 -28.68,5.09 -20.41,4.34 -35.54,11.73 -45.38,22.199 -9.85,10.461 -14.77,24.09 -14.77,40.902 0,19.27 8.13,35.071 24.43,47.379 16.28,12.328 36.96,18.489 62.01,18.489 16.18,0 31.02,-1.539 44.53,-4.637 13.5,-3.094 25.46,-6.902 35.87,-11.453 v -36.168 h -2.16 c -8.76,7.41 -20.29,13.578 -34.56,18.469 -14.28,4.902 -28.89,7.351 -43.84,7.351 -16.4,0 -29.55,-3.41 -39.51,-10.211 -9.94,-6.801 -14.91,-15.57 -14.91,-26.281 0,-9.59 2.47,-17.109 7.41,-22.59 4.95,-5.461 13.66,-9.629 26.13,-12.519 6.6,-1.43 15.99,-3.192 28.14,-5.25 12.17,-2.071 22.48,-4.18 30.93,-6.34 17.11,-4.539 30,-11.399 38.65,-20.571 8.67,-9.179 13,-22.007 13,-38.488"
         style="fill:#231f20;fill-opacity:1;fill-rule:nonzero;stroke:none"
         id="path52" /><path
         d="m 7288.21,424.422 h -82.27 V 221.391 h -30.61 v 203.031 h -82.26 v 27.207 h 195.14 v -27.207"
         style="fill:#231f20;fill-opacity:1;fill-rule:nonzero;stroke:none"
         id="path54" /><path
         d="M 7561.8,221.391 H 7410.11 V 451.629 H 7561.8 V 424.422 H 7440.73 V 361.328 H 7561.8 V 334.121 H 7440.73 V 248.602 H 7561.8 V 221.391"
         style="fill:#231f20;fill-opacity:1;fill-rule:nonzero;stroke:none"
         id="path56" /><path
         d="m 7873.59,221.391 h -30.62 V 419.77 l -64.01,-134.981 h -18.25 L 7697.15,419.77 V 221.391 h -28.59 v 230.238 h 41.74 l 61.38,-128.188 59.39,128.188 h 42.52 V 221.391"
         style="fill:#231f20;fill-opacity:1;fill-rule:nonzero;stroke:none"
         id="path58" /></g></g></svg>
