<?xml version="1.0" encoding="utf-8"?>
<!-- Generator: Adobe Illustrator 25.0.1, SVG Export Plug-In . SVG Version: 6.00 Build 0)  -->
<svg version="1.1" id="Calque_1" xmlns="http://www.w3.org/2000/svg" xmlns:xlink="http://www.w3.org/1999/xlink" x="0px" y="0px"
	 viewBox="0 0 1920 772.4" style="enable-background:new 0 0 1920 772.4;" xml:space="preserve">
<style type="text/css">
	.st0{fill:#3A3A3C;}
	.st1{fill:#FFFFFF;}
	.st2{fill:#E65300;}
	.st3{fill-rule:evenodd;clip-rule:evenodd;fill:#1D1D1B;}
	.st4{fill:#4F4943;}
</style>
<g>
	<g>
		<path class="st0" d="M589.2,50.9c-181.5,0-363,0-544.4,0v676.7h334.7c115.5,0,209.8-94.2,209.8-209.8V50.9z"/>
		<g>
			<path class="st1" d="M191.2,265.4c27.1,0,48.6-20.9,48.6-47.4c0-26.5-21.5-48-48.6-48c-27.1,0-48.6,21.5-48.6,48
				C142.6,244.5,164.1,265.4,191.2,265.4z"/>
			<path class="st1" d="M247.8,547.3V325.1v-8.2c0-14.4-11.8-26.2-26.2-26.2h-73.4c-17.3,0-31.5,14.1-31.5,31.5v22.7h25.8
				c7.4,0,14.8,9.8,14.8,16.6v185.9c0,39.1,22.6,66.5,63.8,66.5h90.4C274.2,613.8,247.8,591.8,247.8,547.3z"/>
			<path class="st1" d="M398.6,547.3v-15.4v-11.4V344.8h22.9c14.4,0,26.2-11.8,26.2-26.2v-27.9h-49.1v-55.1
				c0-36.1-30.1-65.6-66.2-65.6h-24.3v120.6h-56.9c11.5,0,18.7,8.5,18.7,23.2v30.9h38.2v181.8l0,5.2v15.4
				c0,39.1,22.6,66.5,63.8,66.5h90.4C425,613.8,398.6,591.8,398.6,547.3z"/>
		</g>
		<polygon class="st2" points="537.6,167 537.6,37.5 447.7,37.5 447.7,167 492.7,133.9 		"/>
		<polygon class="st3" points="537.6,50.9 537.6,37.5 548.5,50.9 		"/>
	</g>
	<g>
		<g>
			<path class="st4" d="M744.9,394.2h-41V230.7h41c22.5,0,40.8,18.3,40.8,40.8c0,19.6-13.7,36.8-31.8,41c18.1,4.1,31.8,21.4,31.8,41
				C785.6,375.8,767.3,394.2,744.9,394.2z M706.1,392h38.8c21.8,0,38.6-16.8,38.6-38.6c0-22-16.8-39.9-38.6-39.9v-2.2
				c21.8,0,38.6-17.9,38.6-39.9c0-21.8-16.8-38.6-38.6-38.6h-38.8V392z"/>
			<path class="st4" d="M744.9,398.2h-45V226.6h45c24.7,0,44.8,20.1,44.8,44.8c0,17.4-9.8,33.2-24.4,41c14.6,7.8,24.4,23.5,24.4,41
				C789.7,378.1,769.6,398.2,744.9,398.2z M710.1,387.9h34.7c19.7,0,34.5-14.8,34.5-34.5c0-20.1-15.2-35.8-34.5-35.8h-4.1v-4
				l-5.2-1.2l5.2-1.2v-3.9h4.1c19.4,0,34.5-15.7,34.5-35.8c0-19.7-14.8-34.5-34.5-34.5h-34.7V387.9z"/>
		</g>
		<g>
			<path class="st4" d="M817,230.7v81.7c0,43.8,35.7,79.6,79.5,79.6c43.8,0,79.6-35.7,79.6-79.6v-81.7h2.2v81.7
				c0,45.1-36.6,81.7-81.7,81.7c-45.1,0-81.7-36.6-81.7-81.7v-81.7H817z"/>
			<path class="st4" d="M896.6,398.2c-47.3,0-85.8-38.5-85.8-85.8v-85.8h10.3v85.8c0,41.6,33.9,75.5,75.5,75.5
				c41.6,0,75.5-33.9,75.5-75.5v-85.8h10.3v85.8C982.4,359.7,943.9,398.2,896.6,398.2z"/>
		</g>
		<g>
			<path class="st4" d="M1100.9,352.7c0,22.9-21.4,41.4-47.3,41.4c-25.9,0-46.6-18.5-46.6-41.4h2.4c0,21.8,19.8,39.2,44.2,39.2
				c24.8,0,44.7-17.4,44.7-39.2c0-57.8-91.3-20.5-91.3-80.4c0-22.9,20.7-41.6,46.6-41.6c25.9,0,47.3,18.7,47.3,41.6h-2.6
				c0-21.8-19.8-39.4-44.7-39.4c-24.4,0-44.2,17.7-44.2,39.4C1009.3,329.9,1100.9,292.8,1100.9,352.7z"/>
			<path class="st4" d="M1053.6,398.2c-28,0-50.7-20.4-50.7-45.5v-4.1h10.5v4.1c0,19.4,18,35.2,40.2,35.2
				c22.4,0,40.6-15.8,40.6-35.2c0-25.4-19.4-30-41.9-35.3c-23.2-5.5-49.4-11.7-49.4-45.1c0-25.2,22.8-45.7,50.7-45.7
				c28.3,0,51.4,20.5,51.4,45.7v4.1h-10.7v-4.1c0-19.5-18.2-35.4-40.6-35.4c-22.2,0-40.2,15.9-40.2,35.4c0,25.3,19.4,29.9,41.9,35.2
				c23.2,5.5,49.6,11.7,49.6,45.2C1104.9,377.8,1081.9,398.2,1053.6,398.2z"/>
		</g>
		<g>
			<path class="st4" d="M1141.9,392V232.9h-21.8v-2.2h43.6v2.2h-19.6V392h19.6v2.2h-43.6V392H1141.9z"/>
			<polygon class="st4" points="1167.8,398.2 1116,398.2 1116,387.9 1137.8,387.9 1137.8,236.9 1116,236.9 1116,226.6 1167.8,226.6 
				1167.8,236.9 1148.1,236.9 1148.1,387.9 1167.8,387.9 			"/>
		</g>
		<g>
			<path class="st4" d="M1497.4,230.7h2.2l-106.8,163.5l-104.6-160l-104.6,160h-2.2l106.8-163.5l104.6,160l68.9-105.3L1497.4,230.7z
				"/>
			<polygon class="st4" points="1392.8,401.6 1288.1,241.6 1185.7,398.2 1173.8,398.2 1288.1,223.3 1392.8,383.2 1495.2,226.6 
				1507.1,226.6 			"/>
		</g>
		<g>
			<path class="st4" d="M1527.8,230.7h104.4v2.2H1530v72.8h84.6v2.2H1530V392h102.2v2.2h-104.4V230.7z"/>
			<polygon class="st4" points="1636.3,398.2 1523.7,398.2 1523.7,226.6 1636.3,226.6 1636.3,236.9 1534,236.9 1534,301.6 
				1618.6,301.6 1618.6,311.9 1534,311.9 1534,387.9 1636.3,387.9 			"/>
		</g>
		<g>
			<path class="st4" d="M1745.1,352.7c0,22.9-21.4,41.4-47.3,41.4c-25.9,0-46.6-18.5-46.6-41.4h2.4c0,21.8,19.8,39.2,44.2,39.2
				c24.9,0,44.7-17.4,44.7-39.2c0-57.8-91.3-20.5-91.3-80.4c0-22.9,20.7-41.6,46.6-41.6c25.9,0,47.3,18.7,47.3,41.6h-2.6
				c0-21.8-19.8-39.4-44.7-39.4c-24.4,0-44.2,17.7-44.2,39.4C1653.6,329.9,1745.1,292.8,1745.1,352.7z"/>
			<path class="st4" d="M1697.8,398.2c-28,0-50.7-20.4-50.7-45.5v-4.1h10.5v4.1c0,19.4,18,35.2,40.2,35.2
				c22.4,0,40.6-15.8,40.6-35.2c0-25.4-19.4-30-41.9-35.3c-23.2-5.5-49.4-11.7-49.4-45.1c0-25.2,22.7-45.7,50.7-45.7
				c28.3,0,51.4,20.5,51.4,45.7v4.1h-10.7v-4.1c0-19.5-18.2-35.4-40.6-35.4c-22.2,0-40.2,15.9-40.2,35.4c0,25.3,19.4,29.9,41.9,35.2
				c23.2,5.5,49.6,11.7,49.6,45.2C1749.2,377.8,1726.2,398.2,1697.8,398.2z"/>
		</g>
		<g>
			<path class="st4" d="M1870.5,352.7c0,22.9-21.4,41.4-47.3,41.4c-25.9,0-46.6-18.5-46.6-41.4h2.4c0,21.8,19.8,39.2,44.2,39.2
				c24.9,0,44.7-17.4,44.7-39.2c0-57.8-91.3-20.5-91.3-80.4c0-22.9,20.7-41.6,46.6-41.6c25.9,0,47.3,18.7,47.3,41.6h-2.6
				c0-21.8-19.8-39.4-44.7-39.4c-24.4,0-44.2,17.7-44.2,39.4C1779,329.9,1870.5,292.8,1870.5,352.7z"/>
			<path class="st4" d="M1823.2,398.2c-28,0-50.7-20.4-50.7-45.5v-4.1h10.5v4.1c0,19.4,18,35.2,40.2,35.2
				c22.4,0,40.6-15.8,40.6-35.2c0-25.4-19.4-30-41.9-35.3c-23.2-5.5-49.4-11.7-49.4-45.1c0-25.2,22.7-45.7,50.7-45.7
				c28.3,0,51.4,20.5,51.4,45.7v4.1h-10.8v-4.1c0-19.5-18.2-35.4-40.6-35.4c-22.2,0-40.2,15.9-40.2,35.4c0,25.3,19.4,29.9,41.9,35.2
				c23.2,5.5,49.6,11.7,49.6,45.2C1874.6,377.8,1851.5,398.2,1823.2,398.2z"/>
		</g>
		<g>
			<path class="st4" d="M794.3,568.3c0,22.9-21.4,41.4-47.3,41.4c-25.9,0-46.6-18.5-46.6-41.4h2.4c0,21.8,19.8,39.2,44.2,39.2
				c24.8,0,44.7-17.4,44.7-39.2c0-57.8-91.3-20.5-91.3-80.4c0-22.9,20.7-41.6,46.6-41.6c25.9,0,47.3,18.7,47.3,41.6h-2.6
				c0-21.8-19.8-39.4-44.7-39.4c-24.4,0-44.2,17.7-44.2,39.4C702.8,545.4,794.3,508.4,794.3,568.3z"/>
			<path class="st4" d="M747,613.8c-28,0-50.7-20.4-50.7-45.5v-4.1h10.5v4.1c0,19.4,18,35.2,40.2,35.2c22.4,0,40.6-15.8,40.6-35.2
				c0-25.4-19.4-30-41.9-35.3c-23.2-5.5-49.4-11.7-49.4-45.1c0-25.2,22.8-45.7,50.7-45.7c28.3,0,51.4,20.5,51.4,45.7v4.1h-10.8v-4.1
				c0-19.5-18.2-35.4-40.6-35.4c-22.2,0-40.2,15.9-40.2,35.4c0,25.3,19.4,29.9,41.9,35.2c23.2,5.5,49.6,11.7,49.6,45.2
				C798.4,593.4,775.4,613.8,747,613.8z"/>
		</g>
		<g>
			<path class="st4" d="M902.5,607.5c27,0,51-13.5,65.4-34.4h2.6c-14.6,22-39.7,36.6-68,36.6c-45.1,0-81.7-36.6-81.7-81.7
				c0-45.1,36.6-81.7,81.7-81.7c28.3,0,53.4,14.6,68,36.6h-2.6c-14.4-20.7-38.4-34.4-65.4-34.4c-43.8,0-79.5,35.7-79.5,79.5
				C822.9,571.8,858.7,607.5,902.5,607.5z"/>
			<path class="st4" d="M902.5,613.8c-47.3,0-85.8-38.5-85.8-85.8c0-47.3,38.5-85.8,85.8-85.8c28.7,0,55.4,14.4,71.4,38.4l4.2,6.3
				h-12.3l-1.2-1.7c-14.2-20.5-37.4-32.7-62-32.7c-41.6,0-75.5,33.9-75.5,75.5c0,41.6,33.9,75.5,75.5,75.5c24.8,0,48-12.2,62-32.7
				l1.2-1.8H978l-4.2,6.3C957.9,599.4,931.2,613.8,902.5,613.8z"/>
		</g>
		<g>
			<path class="st4" d="M1126.8,544.3h-125.3v65.4h-2.2V446.2h2.2v95.9h125.3v-95.9h2.2v163.5h-2.2V544.3z"/>
			<polygon class="st4" points="1133.1,613.8 1122.7,613.8 1122.7,548.4 1005.6,548.4 1005.6,613.8 995.2,613.8 995.2,442.2 
				1005.6,442.2 1005.6,538.1 1122.7,538.1 1122.7,442.2 1133.1,442.2 			"/>
		</g>
		<g>
			<path class="st4" d="M1241.3,446.2c45.1,0,81.7,36.6,81.7,81.7c0,45.1-36.6,81.7-81.7,81.7c-45.1,0-81.7-36.6-81.7-81.7
				C1159.6,482.9,1196.2,446.2,1241.3,446.2z M1241.3,607.5c43.8,0,79.5-35.7,79.5-79.6c0-43.8-35.7-79.5-79.5-79.5
				c-43.8,0-79.6,35.7-79.6,79.5C1161.7,571.8,1197.5,607.5,1241.3,607.5z"/>
			<path class="st4" d="M1241.3,613.8c-47.3,0-85.8-38.5-85.8-85.8c0-47.3,38.5-85.8,85.8-85.8c47.3,0,85.8,38.5,85.8,85.8
				C1327.1,575.3,1288.6,613.8,1241.3,613.8z M1241.3,452.5c-41.6,0-75.5,33.9-75.5,75.5c0,41.6,33.9,75.5,75.5,75.5
				c41.6,0,75.5-33.9,75.5-75.5C1316.8,486.3,1282.9,452.5,1241.3,452.5z"/>
		</g>
		<g>
			<path class="st4" d="M1431.4,446.2c45.1,0,81.7,36.6,81.7,81.7c0,45.1-36.6,81.7-81.7,81.7c-45.1,0-81.7-36.6-81.7-81.7
				C1349.7,482.9,1386.3,446.2,1431.4,446.2z M1431.4,607.5c43.8,0,79.5-35.7,79.5-79.6c0-43.8-35.7-79.5-79.5-79.5
				c-43.8,0-79.6,35.7-79.6,79.5C1351.9,571.8,1387.6,607.5,1431.4,607.5z"/>
			<path class="st4" d="M1431.4,613.8c-47.3,0-85.8-38.5-85.8-85.8c0-47.3,38.5-85.8,85.8-85.8c47.3,0,85.8,38.5,85.8,85.8
				C1517.2,575.3,1478.7,613.8,1431.4,613.8z M1431.4,452.5c-41.6,0-75.5,33.9-75.5,75.5c0,41.6,33.9,75.5,75.5,75.5
				c41.6,0,75.5-33.9,75.5-75.5C1506.9,486.3,1473,452.5,1431.4,452.5z"/>
		</g>
		<g>
			<path class="st4" d="M1545.7,607.5h85v2.2h-87.2V446.2h2.2V607.5z"/>
			<polygon class="st4" points="1634.7,613.8 1539.4,613.8 1539.4,442.2 1549.7,442.2 1549.7,603.4 1634.7,603.4 			"/>
		</g>
	</g>
</g>
</svg>
