<svg width="528" height="754" viewBox="0 0 528 754" fill="none" xmlns="http://www.w3.org/2000/svg">
<path d="M201.791 424.012L215.491 435.281L236.87 415.481" stroke="#22285D" stroke-width="7.50761" stroke-linecap="round" stroke-linejoin="round"/>
<line x1="91.3754" y1="732.608" x2="434.447" y2="732.608" stroke="#6FCAEF" stroke-width="3.75381" stroke-linecap="round"/>
<line x1="91.3754" y1="732.608" x2="434.447" y2="732.608" stroke="black" stroke-opacity="0.2" stroke-width="3.75381" stroke-linecap="round"/>
<mask id="path-3-outside-1_693_4034" maskUnits="userSpaceOnUse" x="155.776" y="453.239" width="97" height="279" fill="black">
<rect fill="white" x="155.776" y="453.239" width="97" height="279"/>
<path fill-rule="evenodd" clip-rule="evenodd" d="M208.141 486.766V604.916H248.1V496.503L208.141 486.766Z"/>
<path d="M243.873 457.239H212.369C210.034 457.239 208.141 459.084 208.141 461.361V486.766L248.1 496.503V461.361C248.1 459.084 246.207 457.239 243.873 457.239Z"/>
<path d="M176.685 727.965H225.555C234.854 727.965 242.838 722.476 246.285 714.639H160.087C161.599 722.232 168.456 727.965 176.685 727.965Z"/>
<path d="M203.914 679.655H190.776C173.655 679.655 159.776 693.187 159.776 709.881V711.478C159.776 712.559 159.883 713.616 160.087 714.639H246.285C247.453 711.983 248.1 709.056 248.1 705.982V699.541V679.655V604.916H208.141V675.533C208.141 677.809 206.249 679.655 203.914 679.655Z"/>
</mask>
<path fill-rule="evenodd" clip-rule="evenodd" d="M208.141 486.766V604.916H248.1V496.503L208.141 486.766Z" fill="#70C3E6"/>
<path d="M243.873 457.239H212.369C210.034 457.239 208.141 459.084 208.141 461.361V486.766L248.1 496.503V461.361C248.1 459.084 246.207 457.239 243.873 457.239Z" fill="#222325"/>
<path d="M243.873 457.239H212.369C210.034 457.239 208.141 459.084 208.141 461.361V486.766L248.1 496.503V461.361C248.1 459.084 246.207 457.239 243.873 457.239Z" fill="black" fill-opacity="0.2"/>
<path d="M176.685 727.965H225.555C234.854 727.965 242.838 722.476 246.285 714.639H160.087C161.599 722.232 168.456 727.965 176.685 727.965Z" fill="#284495"/>
<path d="M203.914 679.655H190.776C173.655 679.655 159.776 693.187 159.776 709.881V711.478C159.776 712.559 159.883 713.616 160.087 714.639H246.285C247.453 711.983 248.1 709.056 248.1 705.982V699.541V679.655V604.916H208.141V675.533C208.141 677.809 206.249 679.655 203.914 679.655Z" fill="white"/>
<path d="M208.141 606.793H248.1V603.039H208.141V606.793ZM207.697 488.59L247.656 498.326L248.544 494.679L208.586 484.942L207.697 488.59ZM246.285 712.762H160.087V716.516H246.285V712.762ZM246.285 714.639L249.721 716.151L249.721 716.151L246.285 714.639ZM160.087 714.639L163.768 713.906L160.087 714.639ZM212.369 460.993H243.873V453.485H212.369V460.993ZM190.776 683.408H203.914V675.901H190.776V683.408ZM163.53 709.881C163.53 695.349 175.638 683.408 190.776 683.408V675.901C171.672 675.901 156.023 691.025 156.023 709.881H163.53ZM163.53 711.478V709.881H156.023V711.478H163.53ZM225.555 724.211H176.685V731.719H225.555V724.211ZM244.346 699.541V705.982H251.854V699.541H244.346ZM244.346 679.655V699.541H251.854V679.655H244.346ZM204.388 675.533C204.388 675.604 204.364 675.681 204.283 675.76C204.2 675.84 204.077 675.901 203.914 675.901V683.408C208.232 683.408 211.895 679.971 211.895 675.533H204.388ZM243.873 460.993C244.035 460.993 244.159 461.053 244.241 461.134C244.322 461.213 244.346 461.29 244.346 461.361H251.854C251.854 456.922 248.191 453.485 243.873 453.485V460.993ZM212.369 453.485C208.051 453.485 204.388 456.922 204.388 461.361H211.895C211.895 461.29 211.919 461.213 212 461.134C212.083 461.053 212.206 460.993 212.369 460.993V453.485ZM211.895 675.533V604.916H204.388V675.533H211.895ZM244.346 604.916V679.655H251.854V604.916H244.346ZM211.895 604.916V486.766H204.388V604.916H211.895ZM211.895 486.766V461.361H204.388V486.766H211.895ZM244.346 461.361V496.503H251.854V461.361H244.346ZM244.346 496.503V604.916H251.854V496.503H244.346ZM244.346 705.982C244.346 708.524 243.812 710.937 242.848 713.128L249.721 716.151C251.094 713.028 251.854 709.588 251.854 705.982H244.346ZM242.848 713.128C239.997 719.612 233.354 724.211 225.555 724.211V731.719C236.354 731.719 245.679 725.34 249.721 716.151L242.848 713.128ZM176.685 724.211C170.215 724.211 164.925 719.713 163.768 713.906L156.405 715.372C158.273 724.752 166.696 731.719 176.685 731.719V724.211ZM163.768 713.906C163.612 713.123 163.53 712.312 163.53 711.478H156.023C156.023 712.807 156.154 714.109 156.405 715.372L163.768 713.906Z" fill="#6FCAEF" mask="url(#path-3-outside-1_693_4034)"/>
<path d="M208.141 606.793H248.1V603.039H208.141V606.793ZM207.697 488.59L247.656 498.326L248.544 494.679L208.586 484.942L207.697 488.59ZM246.285 712.762H160.087V716.516H246.285V712.762ZM246.285 714.639L249.721 716.151L249.721 716.151L246.285 714.639ZM160.087 714.639L163.768 713.906L160.087 714.639ZM212.369 460.993H243.873V453.485H212.369V460.993ZM190.776 683.408H203.914V675.901H190.776V683.408ZM163.53 709.881C163.53 695.349 175.638 683.408 190.776 683.408V675.901C171.672 675.901 156.023 691.025 156.023 709.881H163.53ZM163.53 711.478V709.881H156.023V711.478H163.53ZM225.555 724.211H176.685V731.719H225.555V724.211ZM244.346 699.541V705.982H251.854V699.541H244.346ZM244.346 679.655V699.541H251.854V679.655H244.346ZM204.388 675.533C204.388 675.604 204.364 675.681 204.283 675.76C204.2 675.84 204.077 675.901 203.914 675.901V683.408C208.232 683.408 211.895 679.971 211.895 675.533H204.388ZM243.873 460.993C244.035 460.993 244.159 461.053 244.241 461.134C244.322 461.213 244.346 461.29 244.346 461.361H251.854C251.854 456.922 248.191 453.485 243.873 453.485V460.993ZM212.369 453.485C208.051 453.485 204.388 456.922 204.388 461.361H211.895C211.895 461.29 211.919 461.213 212 461.134C212.083 461.053 212.206 460.993 212.369 460.993V453.485ZM211.895 675.533V604.916H204.388V675.533H211.895ZM244.346 604.916V679.655H251.854V604.916H244.346ZM211.895 604.916V486.766H204.388V604.916H211.895ZM211.895 486.766V461.361H204.388V486.766H211.895ZM244.346 461.361V496.503H251.854V461.361H244.346ZM244.346 496.503V604.916H251.854V496.503H244.346ZM244.346 705.982C244.346 708.524 243.812 710.937 242.848 713.128L249.721 716.151C251.094 713.028 251.854 709.588 251.854 705.982H244.346ZM242.848 713.128C239.997 719.612 233.354 724.211 225.555 724.211V731.719C236.354 731.719 245.679 725.34 249.721 716.151L242.848 713.128ZM176.685 724.211C170.215 724.211 164.925 719.713 163.768 713.906L156.405 715.372C158.273 724.752 166.696 731.719 176.685 731.719V724.211ZM163.768 713.906C163.612 713.123 163.53 712.312 163.53 711.478H156.023C156.023 712.807 156.154 714.109 156.405 715.372L163.768 713.906Z" fill="black" fill-opacity="0.2" mask="url(#path-3-outside-1_693_4034)"/>
<mask id="path-5-outside-2_693_4034" maskUnits="userSpaceOnUse" x="279.073" y="453.239" width="95" height="279" fill="black">
<rect fill="white" x="279.073" y="453.239" width="95" height="279"/>
<path fill-rule="evenodd" clip-rule="evenodd" d="M322.475 500.247V634.392H283.151V494.256L322.475 500.247Z"/>
<path d="M287.311 457.239H318.315C320.613 457.239 322.475 459.084 322.475 461.361V500.247L283.151 494.256V461.361C283.151 459.084 285.014 457.239 287.311 457.239Z"/>
<path d="M353.432 727.965H305.338C296.743 727.965 289.29 723.123 285.605 716.042H369.427C367.429 722.928 361.025 727.965 353.432 727.965Z"/>
<path d="M326.635 679.655H339.565C356.414 679.655 370.073 693.187 370.073 709.881V711.478C370.073 713.061 369.847 714.593 369.427 716.042H285.605C284.037 713.028 283.151 709.607 283.151 705.982V699.541V679.655V634.392H322.475V675.533C322.475 677.809 324.338 679.655 326.635 679.655Z"/>
</mask>
<path fill-rule="evenodd" clip-rule="evenodd" d="M322.475 500.247V634.392H283.151V494.256L322.475 500.247Z" fill="#70C3E6"/>
<path d="M287.311 457.239H318.315C320.613 457.239 322.475 459.084 322.475 461.361V500.247L283.151 494.256V461.361C283.151 459.084 285.014 457.239 287.311 457.239Z" fill="#222325"/>
<path d="M287.311 457.239H318.315C320.613 457.239 322.475 459.084 322.475 461.361V500.247L283.151 494.256V461.361C283.151 459.084 285.014 457.239 287.311 457.239Z" fill="black" fill-opacity="0.2"/>
<path d="M353.432 727.965H305.338C296.743 727.965 289.29 723.123 285.605 716.042H369.427C367.429 722.928 361.025 727.965 353.432 727.965Z" fill="#284495"/>
<path d="M326.635 679.655H339.565C356.414 679.655 370.073 693.187 370.073 709.881V711.478C370.073 713.061 369.847 714.593 369.427 716.042H285.605C284.037 713.028 283.151 709.607 283.151 705.982V699.541V679.655V634.392H322.475V675.533C322.475 677.809 324.338 679.655 326.635 679.655Z" fill="white"/>
<path d="M322.475 636.268H283.151V632.515H322.475V636.268ZM283.434 492.4L322.758 498.392L322.193 502.103L282.868 496.111L283.434 492.4ZM369.427 717.919H285.605V714.165H369.427V717.919ZM369.427 716.042L365.822 714.996L365.822 714.996L369.427 716.042ZM285.605 716.042L282.275 717.775L282.275 717.775L285.605 716.042ZM318.315 460.993H287.311V453.485H318.315V460.993ZM339.565 683.408H326.635V675.901H339.565V683.408ZM366.319 709.881C366.319 695.293 354.374 683.408 339.565 683.408V675.901C358.455 675.901 373.827 691.082 373.827 709.881H366.319ZM366.319 711.478V709.881H373.827V711.478H366.319ZM305.338 724.211H353.432V731.719H305.338V724.211ZM286.905 699.541V705.982H279.397V699.541H286.905ZM286.905 679.655V699.541H279.397V679.655H286.905ZM326.229 675.533C326.229 675.703 326.378 675.901 326.635 675.901V683.408C322.298 683.408 318.722 679.915 318.722 675.533H326.229ZM287.311 460.993C287.054 460.993 286.905 461.19 286.905 461.361H279.397C279.397 456.979 282.973 453.485 287.311 453.485V460.993ZM318.315 453.485C322.653 453.485 326.229 456.979 326.229 461.361H318.722C318.722 461.19 318.573 460.993 318.315 460.993V453.485ZM318.722 675.533V634.392H326.229V675.533H318.722ZM286.905 634.392V679.655H279.397V634.392H286.905ZM286.905 461.361V494.256H279.397V461.361H286.905ZM286.905 494.256V634.392H279.397V494.256H286.905ZM318.722 634.392V500.247H326.229V634.392H318.722ZM318.722 500.247V461.361H326.229V500.247H318.722ZM353.432 724.211C359.33 724.211 364.283 720.301 365.822 714.996L373.032 717.088C370.576 725.554 362.719 731.719 353.432 731.719V724.211ZM365.822 714.996C366.145 713.883 366.319 712.704 366.319 711.478H373.827C373.827 713.419 373.55 715.302 373.032 717.088L365.822 714.996ZM286.905 705.982C286.905 708.989 287.638 711.816 288.935 714.309L282.275 717.775C280.435 714.239 279.397 710.226 279.397 705.982H286.905ZM288.935 714.309C291.993 720.185 298.185 724.211 305.338 724.211V731.719C295.302 731.719 286.587 726.061 282.275 717.775L288.935 714.309Z" fill="#6FCAEF" mask="url(#path-5-outside-2_693_4034)"/>
<path d="M322.475 636.268H283.151V632.515H322.475V636.268ZM283.434 492.4L322.758 498.392L322.193 502.103L282.868 496.111L283.434 492.4ZM369.427 717.919H285.605V714.165H369.427V717.919ZM369.427 716.042L365.822 714.996L365.822 714.996L369.427 716.042ZM285.605 716.042L282.275 717.775L282.275 717.775L285.605 716.042ZM318.315 460.993H287.311V453.485H318.315V460.993ZM339.565 683.408H326.635V675.901H339.565V683.408ZM366.319 709.881C366.319 695.293 354.374 683.408 339.565 683.408V675.901C358.455 675.901 373.827 691.082 373.827 709.881H366.319ZM366.319 711.478V709.881H373.827V711.478H366.319ZM305.338 724.211H353.432V731.719H305.338V724.211ZM286.905 699.541V705.982H279.397V699.541H286.905ZM286.905 679.655V699.541H279.397V679.655H286.905ZM326.229 675.533C326.229 675.703 326.378 675.901 326.635 675.901V683.408C322.298 683.408 318.722 679.915 318.722 675.533H326.229ZM287.311 460.993C287.054 460.993 286.905 461.19 286.905 461.361H279.397C279.397 456.979 282.973 453.485 287.311 453.485V460.993ZM318.315 453.485C322.653 453.485 326.229 456.979 326.229 461.361H318.722C318.722 461.19 318.573 460.993 318.315 460.993V453.485ZM318.722 675.533V634.392H326.229V675.533H318.722ZM286.905 634.392V679.655H279.397V634.392H286.905ZM286.905 461.361V494.256H279.397V461.361H286.905ZM286.905 494.256V634.392H279.397V494.256H286.905ZM318.722 634.392V500.247H326.229V634.392H318.722ZM318.722 500.247V461.361H326.229V500.247H318.722ZM353.432 724.211C359.33 724.211 364.283 720.301 365.822 714.996L373.032 717.088C370.576 725.554 362.719 731.719 353.432 731.719V724.211ZM365.822 714.996C366.145 713.883 366.319 712.704 366.319 711.478H373.827C373.827 713.419 373.55 715.302 373.032 717.088L365.822 714.996ZM286.905 705.982C286.905 708.989 287.638 711.816 288.935 714.309L282.275 717.775C280.435 714.239 279.397 710.226 279.397 705.982H286.905ZM288.935 714.309C291.993 720.185 298.185 724.211 305.338 724.211V731.719C295.302 731.719 286.587 726.061 282.275 717.775L288.935 714.309Z" fill="black" fill-opacity="0.2" mask="url(#path-5-outside-2_693_4034)"/>
<path d="M216.076 679.06C228.038 679.098 236.799 683.41 236.799 683.41" stroke="#6FCAEF" stroke-width="3.75381" stroke-linecap="round"/>
<path d="M216.076 679.06C228.038 679.098 236.799 683.41 236.799 683.41" stroke="black" stroke-opacity="0.2" stroke-width="3.75381" stroke-linecap="round"/>
<path d="M313.924 679.06C301.963 679.098 293.202 683.41 293.202 683.41" stroke="#6FCAEF" stroke-width="3.75381" stroke-linecap="round"/>
<path d="M313.924 679.06C301.963 679.098 293.202 683.41 293.202 683.41" stroke="black" stroke-opacity="0.2" stroke-width="3.75381" stroke-linecap="round"/>
<path d="M409.75 339.992L409.75 339.983C410.337 323.774 409.593 308.417 404.775 293.903C399.944 279.347 391.054 265.753 375.534 252.999C359.778 240.049 338.837 236.932 320.698 235.649C316.74 235.369 312.958 235.179 309.379 234.998C304.622 234.758 300.222 234.536 296.241 234.147C292.797 233.81 289.804 233.358 287.332 232.689C284.844 232.016 283.023 231.16 281.807 230.107C279.222 227.869 278.371 225.424 278.4 222.682C278.43 219.792 279.438 216.564 280.763 212.877C280.968 212.307 281.18 211.727 281.396 211.138C282.535 208.023 283.767 204.657 284.482 201.254C285.344 197.16 285.507 192.827 283.869 188.481C282.107 183.805 277.949 181.007 272.572 179.641C267.215 178.28 260.395 178.257 252.717 179.284C237.336 181.34 217.972 187.686 198.741 196.919C162.41 214.362 120.399 249.283 115.095 316.266C114.408 324.951 114.38 333.633 114.48 342.269C114.652 357.174 115.673 382.902 120.111 408.18C122.33 420.819 125.411 433.394 129.693 444.47C133.966 455.527 139.483 465.215 146.644 471.957C161.493 485.936 181.348 494.811 203.41 495.612L309.09 499.444C331.152 500.244 351.597 492.829 367.417 479.962C377.09 472.095 384.49 459.294 390.182 444.772C395.889 430.209 399.958 413.704 402.849 398.209C405.743 382.704 407.467 368.157 408.468 357.49C408.969 352.155 409.289 347.786 409.484 344.749C409.582 343.23 409.648 342.044 409.69 341.236C409.711 340.832 409.726 340.523 409.735 340.313C409.74 340.209 409.744 340.129 409.746 340.075L409.749 340.014L409.749 339.998L409.75 339.993C409.75 339.992 409.75 339.992 407.874 339.915L409.75 339.992Z" fill="#EEEFFC"/>
<path d="M409.75 339.992L409.75 339.983C410.337 323.774 409.593 308.417 404.775 293.903C399.944 279.347 391.054 265.753 375.534 252.999C359.778 240.049 338.837 236.932 320.698 235.649C316.74 235.369 312.958 235.179 309.379 234.998C304.622 234.758 300.222 234.536 296.241 234.147C292.797 233.81 289.804 233.358 287.332 232.689C284.844 232.016 283.023 231.16 281.807 230.107C279.222 227.869 278.371 225.424 278.4 222.682C278.43 219.792 279.438 216.564 280.763 212.877C280.968 212.307 281.18 211.727 281.396 211.138C282.535 208.023 283.767 204.657 284.482 201.254C285.344 197.16 285.507 192.827 283.869 188.481C282.107 183.805 277.949 181.007 272.572 179.641C267.215 178.28 260.395 178.257 252.717 179.284C237.336 181.34 217.972 187.686 198.741 196.919C162.41 214.362 120.399 249.283 115.095 316.266C114.408 324.951 114.38 333.633 114.48 342.269C114.652 357.174 115.673 382.902 120.111 408.18C122.33 420.819 125.411 433.394 129.693 444.47C133.966 455.527 139.483 465.215 146.644 471.957C161.493 485.936 181.348 494.811 203.41 495.612L309.09 499.444C331.152 500.244 351.597 492.829 367.417 479.962C377.09 472.095 384.49 459.294 390.182 444.772C395.889 430.209 399.958 413.704 402.849 398.209C405.743 382.704 407.467 368.157 408.468 357.49C408.969 352.155 409.289 347.786 409.484 344.749C409.582 343.23 409.648 342.044 409.69 341.236C409.711 340.832 409.726 340.523 409.735 340.313C409.74 340.209 409.744 340.129 409.746 340.075L409.749 340.014L409.749 339.998L409.75 339.993C409.75 339.992 409.75 339.992 407.874 339.915L409.75 339.992Z" stroke="#222325" stroke-width="3.75381"/>
<path d="M409.75 339.992L409.75 339.983C410.337 323.774 409.593 308.417 404.775 293.903C399.944 279.347 391.054 265.753 375.534 252.999C359.778 240.049 338.837 236.932 320.698 235.649C316.74 235.369 312.958 235.179 309.379 234.998C304.622 234.758 300.222 234.536 296.241 234.147C292.797 233.81 289.804 233.358 287.332 232.689C284.844 232.016 283.023 231.16 281.807 230.107C279.222 227.869 278.371 225.424 278.4 222.682C278.43 219.792 279.438 216.564 280.763 212.877C280.968 212.307 281.18 211.727 281.396 211.138C282.535 208.023 283.767 204.657 284.482 201.254C285.344 197.16 285.507 192.827 283.869 188.481C282.107 183.805 277.949 181.007 272.572 179.641C267.215 178.28 260.395 178.257 252.717 179.284C237.336 181.34 217.972 187.686 198.741 196.919C162.41 214.362 120.399 249.283 115.095 316.266C114.408 324.951 114.38 333.633 114.48 342.269C114.652 357.174 115.673 382.902 120.111 408.18C122.33 420.819 125.411 433.394 129.693 444.47C133.966 455.527 139.483 465.215 146.644 471.957C161.493 485.936 181.348 494.811 203.41 495.612L309.09 499.444C331.152 500.244 351.597 492.829 367.417 479.962C377.09 472.095 384.49 459.294 390.182 444.772C395.889 430.209 399.958 413.704 402.849 398.209C405.743 382.704 407.467 368.157 408.468 357.49C408.969 352.155 409.289 347.786 409.484 344.749C409.582 343.23 409.648 342.044 409.69 341.236C409.711 340.832 409.726 340.523 409.735 340.313C409.74 340.209 409.744 340.129 409.746 340.075L409.749 340.014L409.749 339.998L409.75 339.993C409.75 339.992 409.75 339.992 407.874 339.915L409.75 339.992Z" stroke="#6FCAEF" stroke-width="3.75381"/>
<mask id="mask0_693_4034" style="mask-type:alpha" maskUnits="userSpaceOnUse" x="116" y="180" width="293" height="318">
<path d="M407.873 339.915C409.04 307.66 404.869 279.538 374.341 254.449C343.814 229.36 292.719 242.04 280.577 231.526C268.436 221.013 287.99 204.742 282.111 189.143C276.233 173.545 237.785 180.256 199.552 198.611C163.594 215.875 122.198 250.317 116.965 316.415C116.284 325.012 116.256 333.624 116.355 342.247C116.699 371.97 120.427 444.699 147.929 470.59C162.458 484.268 181.884 492.953 203.476 493.736L309.157 497.568C330.749 498.351 350.752 491.096 366.231 478.506C403.434 448.25 407.873 339.915 407.873 339.915Z" fill="#DFF1F8"/>
</mask>
<g mask="url(#mask0_693_4034)">
<path d="M412.306 348.152C413.457 316.358 411.13 281.618 381.768 256.913C352.407 232.209 291.586 241.229 272.667 241.712C253.748 242.195 266.726 217.949 261.081 202.578C255.436 187.208 213.255 197.287 180.043 213.638C146.832 229.99 116.762 265.219 111.669 330.375C111.007 338.849 110.973 347.338 111.061 355.838C111.367 385.135 114.894 456.821 141.343 482.318C155.315 495.788 174.005 504.333 194.787 505.086L296.501 508.775V508.775C344.557 510.517 387.357 472.573 400.082 426.2C410.459 388.386 412.306 348.152 412.306 348.152Z" fill="#C3E4F1"/>
<path d="M218.152 277.905C246.867 276.186 295.307 249.696 342.616 259.971C310.481 290.202 215.518 350.965 175.775 348.396C136.031 345.826 127.09 332.11 130.057 306.768C133.023 281.427 142.52 272.732 165.555 274.893C188.589 277.053 189.436 279.623 218.152 277.905Z" fill="#48A7D8"/>
<path d="M396.991 339.286C397.088 307.752 392.927 296.278 380.365 281.958C367.802 267.638 345.971 253.846 309.554 258.018C273.138 262.19 252.899 273.859 239.131 282.415C225.363 290.971 194.934 312.642 162.89 305.043C130.846 297.444 141.934 277.224 136.873 284.08C126.119 298.648 122.877 326.604 124.192 355.612C125.507 384.62 127.851 443.432 155.913 467.737C170.737 480.578 189.833 485.233 211.222 485.233L312.952 487.828C334.342 487.828 348.347 481.93 363.25 469.09C399.066 438.231 396.991 339.286 396.991 339.286Z" fill="#70C4E6"/>
</g>
<ellipse rx="9.56521" ry="9.43547" transform="matrix(0.999343 0.0362395 -0.0361715 0.999346 226.963 340.65)" fill="#222325"/>
<ellipse rx="9.56521" ry="9.43547" transform="matrix(0.999343 0.0362395 -0.0361715 0.999346 226.963 340.65)" fill="black" fill-opacity="0.2"/>
<path d="M363.833 343.129C363.833 371.553 341.074 394.531 313.079 394.531C285.084 394.531 262.325 371.553 262.325 343.129C262.325 314.704 285.084 291.726 313.079 291.726C341.074 291.726 363.833 314.704 363.833 343.129Z" stroke="#222325" stroke-width="6.25634"/>
<path d="M363.833 343.129C363.833 371.553 341.074 394.531 313.079 394.531C285.084 394.531 262.325 371.553 262.325 343.129C262.325 314.704 285.084 291.726 313.079 291.726C341.074 291.726 363.833 314.704 363.833 343.129Z" stroke="black" stroke-opacity="0.2" stroke-width="6.25634"/>
<ellipse cx="309.362" cy="340.031" rx="22.9152" ry="22.9277" fill="#222325"/>
<ellipse cx="309.362" cy="340.031" rx="22.9152" ry="22.9277" fill="black" fill-opacity="0.2"/>
<path d="M461.741 371.322L405.768 377.962L401.564 418.008C401.564 418.008 388.951 420.837 383.345 429.326C377.739 437.814 381.243 446.302 387.549 453.376C382.784 482.378 428.892 503.598 453.591 463.621C470.433 453.159 500.359 430.438 508.65 421.545C519.014 410.429 519.979 389.224 508.65 377.962C497.32 366.699 461.741 371.322 461.741 371.322Z" fill="#70C3E6"/>
<path d="M390.034 440.98C388.731 446.476 388.465 447.801 387.549 453.376M461.741 389.224L414.877 421.545C411.374 416.593 401.564 418.008 401.564 418.008M401.564 418.008C401.564 418.008 388.951 420.837 383.345 429.326C377.739 437.814 381.243 446.302 387.549 453.376M401.564 418.008L405.768 377.962L461.741 371.322C461.741 371.322 497.32 366.699 508.65 377.962C519.979 389.224 519.014 410.429 508.65 421.545C500.359 430.438 470.433 453.158 453.591 463.621C428.892 503.598 382.784 482.378 387.549 453.376M404.361 448.081C403.848 443.376 404.848 435.671 410.667 433.934" stroke="#6FCAEF" stroke-width="3.75381" stroke-linecap="round" stroke-linejoin="round"/>
<path d="M390.034 440.98C388.731 446.476 388.465 447.801 387.549 453.376M461.741 389.224L414.877 421.545C411.374 416.593 401.564 418.008 401.564 418.008M401.564 418.008C401.564 418.008 388.951 420.837 383.345 429.326C377.739 437.814 381.243 446.302 387.549 453.376M401.564 418.008L405.768 377.962L461.741 371.322C461.741 371.322 497.32 366.699 508.65 377.962C519.979 389.224 519.014 410.429 508.65 421.545C500.359 430.438 470.433 453.158 453.591 463.621C428.892 503.598 382.784 482.378 387.549 453.376M404.361 448.081C403.848 443.376 404.848 435.671 410.667 433.934" stroke="black" stroke-opacity="0.2" stroke-width="3.75381" stroke-linecap="round" stroke-linejoin="round"/>
<path d="M351.19 378.806L406.519 435.026" stroke="#222325" stroke-width="6.25634" stroke-linecap="round"/>
<path d="M351.19 378.806L406.519 435.026" stroke="black" stroke-opacity="0.2" stroke-width="6.25634" stroke-linecap="round"/>
<path d="M195.948 536.34C192.538 449.982 176.963 417.58 166.922 411.877C170.658 410.034 174.48 408.37 178.374 406.874C177.517 401.065 169.732 390.244 165.946 385.56C170.997 383.967 175.973 382.506 180.871 381.168L170.991 369.721C215.437 360.991 309.245 347.598 328.911 363.861L324.721 374.529C336.956 377.436 346.25 381 352.234 384.237L335.253 408.353C342.173 410.377 348.277 412.442 353.351 414.386C315.095 441.198 307.98 504.586 309.204 532.929L195.948 536.34Z" fill="#FEABB7"/>
<path d="M115.118 558.956C73.6501 539.401 105.508 415.534 117.917 395.145C119.541 415.801 127.014 459.123 150.807 477.402C159.904 466.153 182.997 435.922 182.997 435.922L187.196 452.092C196.751 442.098 212.202 445.16 215.188 457.717C219.37 475.305 204.075 499.84 192.095 515.367C180.114 530.893 149.407 575.126 115.118 558.956Z" fill="#70C3E6"/>
<path d="M122.116 509.039C142.41 487.245 150.807 477.402 150.807 477.402M150.807 477.402C159.904 466.153 182.997 435.922 182.997 435.922L187.196 452.092C196.751 442.098 212.202 445.16 215.188 457.717C219.37 475.305 204.075 499.84 192.095 515.367C180.114 530.893 149.407 575.126 115.118 558.956C73.6501 539.401 105.508 415.534 117.917 395.145C119.541 415.801 127.014 459.123 150.807 477.402Z" stroke="#6FCAEF" stroke-width="3.75381" stroke-linecap="round" stroke-linejoin="round"/>
<path d="M122.116 509.039C142.41 487.245 150.807 477.402 150.807 477.402M150.807 477.402C159.904 466.153 182.997 435.922 182.997 435.922L187.196 452.092C196.751 442.098 212.202 445.16 215.188 457.717C219.37 475.305 204.075 499.84 192.095 515.367C180.114 530.893 149.407 575.126 115.118 558.956C73.6501 539.401 105.508 415.534 117.917 395.145C119.541 415.801 127.014 459.123 150.807 477.402Z" stroke="black" stroke-opacity="0.2" stroke-width="3.75381" stroke-linecap="round" stroke-linejoin="round"/>
<ellipse cx="294.499" cy="328.876" rx="11.7673" ry="11.7737" fill="white"/>
<path d="M189.731 400.347C217.435 391.411 296.153 387.72 324.642 401.668M193.075 378.231C218.267 372.294 277.118 363.108 310.991 373.855" stroke="#222325" stroke-width="6.25634" stroke-linecap="round" stroke-linejoin="round"/>
<path d="M189.731 400.347C217.435 391.411 296.153 387.72 324.642 401.668M193.075 378.231C218.267 372.294 277.118 363.108 310.991 373.855" stroke="black" stroke-opacity="0.2" stroke-width="6.25634" stroke-linecap="round" stroke-linejoin="round"/>
<line x1="209.489" y1="606.682" x2="246.22" y2="606.682" stroke="#6FCAEF" stroke-width="3.75381" stroke-linecap="square"/>
<line x1="209.489" y1="606.682" x2="246.22" y2="606.682" stroke="black" stroke-opacity="0.2" stroke-width="3.75381" stroke-linecap="square"/>
<line x1="285.024" y1="635.415" x2="321.755" y2="635.415" stroke="#6FCAEF" stroke-width="3.75381" stroke-linecap="square"/>
<line x1="285.024" y1="635.415" x2="321.755" y2="635.415" stroke="black" stroke-opacity="0.2" stroke-width="3.75381" stroke-linecap="square"/>
<path d="M71.9119 156.667C67.6179 157.413 63.198 156.67 59.3839 154.561C55.5697 152.452 52.5901 149.104 50.9381 145.071C44.6723 129.953 40.3404 118.328 41.4393 106.547C42.7863 92.568 51.1655 83.0436 60.3582 73.7286C66.5585 67.459 70.1322 58.9701 69.4888 52.1189C69.0405 47.5745 66.8 44.0755 62.4333 41.1279C49.5263 32.3803 34.6146 52.1624 33.9427 53.022C33.9427 53.022 21.1874 68.3533 7.70556 57.0131C-5.77624 45.6728 3.03403 30.5195 3.03403 30.5195C9.04171 22.5832 16.3533 15.7247 24.6572 10.2364C44.4868 -2.67176 65.5139 -2.85005 83.8339 9.50768C97.5401 18.7849 105.942 32.609 107.496 48.4289C109.291 66.677 101.83 86.2158 87.5199 100.668C80.8007 107.465 79.6917 109.649 79.4466 110.327C79.0589 113.266 84.2566 125.796 86.2191 130.521C87.3083 133.163 87.7922 136.016 87.6355 138.869C87.4788 141.723 86.6855 144.506 85.3136 147.013C83.9416 149.52 82.0259 151.688 79.7069 153.359C77.388 155.029 74.7245 156.16 71.9119 156.667V156.667Z" fill="#F0D655"/>
<path d="M92.4921 220.355C104.547 218.229 112.596 206.734 110.47 194.679C108.345 182.624 96.8494 174.575 84.7947 176.701C72.74 178.826 64.6909 190.322 66.8165 202.376C68.942 214.431 80.4374 222.48 92.4921 220.355Z" fill="#F0D655"/>
</svg>
